#N canvas 103 23 1337 849 10;
#X floatatom 675 331 5 0 0 0 - - -;
#X obj 675 358 s squelch;
#N canvas 6 50 690 470 fft-analysis 0;
#X obj 275 314 *~;
#X obj 257 348 *~;
#X obj 218 348 *~;
#X obj 105 163 *~;
#X obj 66 156 *~;
#X obj 66 182 +~;
#X obj 216 104 *~;
#X obj 253 104 inlet~;
#X obj 216 130 rfft~;
#X obj 42 371 *~;
#X floatatom 458 208 0 0 0 0 - - -;
#X obj 334 177 *~;
#X obj 66 104 *~;
#X obj 103 104 inlet~;
#X obj 45 65 tabreceive~ hanning;
#X obj 66 130 rfft~;
#X obj 218 374 rifft~;
#X obj 42 397 outlet~;
#X obj 297 177 *~;
#X obj 297 203 +~;
#X obj 307 314 sig~ 0.001;
#X text 122 214 modulus;
#X obj 66 208 sqrt~;
#X obj 275 288 *~;
#X obj 457 58 r squelch;
#X obj 329 418 block~ 1024 4;
#X obj 297 229 rsqrt~;
#X obj 341 203 sig~ 1e-20;
#X obj 297 255 clip~;
#X obj 458 130 t f f;
#X obj 458 156 *;
#X obj 458 182 * 0.01;
#X obj 456 94 max 1;
#X obj 559 58 loadbang;
#X obj 458 234 max 0;
#X connect 0 0 1 1;
#X connect 0 0 2 1;
#X connect 1 0 16 1;
#X connect 2 0 16 0;
#X connect 3 0 5 1;
#X connect 4 0 5 0;
#X connect 5 0 22 0;
#X connect 6 0 8 0;
#X connect 7 0 6 1;
#X connect 8 0 18 0;
#X connect 8 0 18 1;
#X connect 8 0 2 0;
#X connect 8 1 11 0;
#X connect 8 1 11 1;
#X connect 8 1 1 0;
#X connect 9 0 17 0;
#X connect 10 0 34 0;
#X connect 11 0 19 1;
#X connect 12 0 15 0;
#X connect 13 0 12 1;
#X connect 14 0 12 0;
#X connect 14 0 6 0;
#X connect 14 0 9 0;
#X connect 15 0 4 0;
#X connect 15 0 4 1;
#X connect 15 1 3 0;
#X connect 15 1 3 1;
#X connect 16 0 9 1;
#X connect 18 0 19 0;
#X connect 19 0 26 0;
#X connect 20 0 0 1;
#X connect 22 0 23 0;
#X connect 23 0 0 0;
#X connect 24 0 32 0;
#X connect 26 0 28 0;
#X connect 27 0 26 0;
#X connect 28 0 23 1;
#X connect 29 0 30 0;
#X connect 29 0 30 1;
#X connect 30 0 31 0;
#X connect 31 0 10 0;
#X connect 32 0 29 0;
#X connect 33 0 32 0;
#X connect 34 0 28 2;
#X restore 114 423 pd fft-analysis;
#X obj 518 336 sig~;
#X obj 517 367 lop~ 5;
#X obj 518 265 / 100;
#X obj 518 287 mtof;
#X obj 518 309 / 8.1785;
#X obj 518 240 * 2400;
#X obj 451 581 loadbang;
#N canvas 46 50 723 534 hanning-window 0;
#X obj 122 273 phasor~;
#X obj 122 311 cos~;
#X obj 31 436 tabwrite~ hanning;
#X obj 40 336 -~;
#X obj 37 290 sig~ 1;
#X msg 50 240 0;
#X text 188 18 CALCULATE HANNING;
#X text 188 36 WINDOW TABLE;
#N canvas 0 50 450 300 (subpatch) 0;
#X array hanning 1024 float 0;
#X coords 0 1 1023 -1 400 300 1;
#X restore 342 235 graph;
#X obj 123 227 sig~;
#X text 156 173 sample rate / window size;
#X msg 31 191 bang;
#X obj 88 357 sig~ 0.5;
#X obj 66 399 *~;
#X obj 124 106 samplerate~;
#X obj 33 31 r window-size;
#X obj 123 175 /;
#X msg 262 106 \; hanning resize \$1;
#X obj 31 70 t b f f;
#X connect 0 0 1 0;
#X connect 1 0 3 1;
#X connect 3 0 13 0;
#X connect 4 0 3 0;
#X connect 5 0 0 1;
#X connect 9 0 0 0;
#X connect 11 0 2 0;
#X connect 11 0 5 0;
#X connect 12 0 13 1;
#X connect 13 0 2 0;
#X connect 14 0 16 0;
#X connect 15 0 18 0;
#X connect 16 0 9 0;
#X connect 18 0 14 0;
#X connect 18 0 11 0;
#X connect 18 1 16 1;
#X connect 18 2 17 0;
#X restore 451 642 pd hanning-window;
#X msg 451 607 \; window-size 1024 \;;
#X obj 72 575 *~ 1;
#X obj 675 301 * 50;
#X obj 675 273 *;
#X obj 675 247 t f f;
#X obj 516 402 s~ tune;
#X obj 172 248 unpack;
#X obj 172 269 poly 4 1;
#X obj 172 297 pack 0 0 0;
#X obj 168 324 route 1 2 3 4;
#X obj 215 357 tone;
#X obj 172 357 tone;
#X obj 261 355 tone;
#X obj 302 355 tone;
#X obj 230 497 r wetdry;
#X text 450 674 4 voice vocoder;
#X obj 826 365 s wetdry;
#X text 240 409 vocoder processes microphone input against up to 4
tone voices, f 26;
#X msg 107 690 wet \$1;
#X msg 121 740 dry \$1;
#X obj 76 787 freeverb~;
#X obj 984 348 - 1;
#X obj 984 375 abs;
#X obj 134 591 r rwet;
#X obj 206 624 r rdry;
#X obj 984 402 s rdry;
#X obj 983 311 s rwet;
#X obj 983 279 * 0.5;
#X msg 126 617 \$1 40;
#X msg 227 656 \$1 40;
#X obj 224 686 line 0 1;
#X obj 123 647 line 0 1;
#X obj 9 664 loadbang;
#X obj 57 199 lop~ 500;
#N canvas 6 50 612 483 crossfade 0;
#X obj 33 48 inlet~;
#X obj 211 67 inlet;
#X obj 39 327 outlet~;
#X obj 49 194 expr cos($f1 * 3.14159 / 2);
#X obj 244 194 expr sin($f1 * 3.14159 / 2);
#X obj 211 143 clip 0 1;
#N canvas 7 50 594 632 pan_core 0;
#X obj 21 106 inlet~;
#X obj 226 126 inlet;
#X obj 59 259 *~;
#X obj 123 303 outlet~;
#X obj 189 258 *~;
#X obj 205 234 line~;
#X obj 75 234 line~;
#X obj 96 127 inlet;
#X obj 179 104 inlet~;
#X text 223 350 comment;
#X obj 75 195 pack f 5;
#X obj 205 195 pack f 5;
#X text 202 346 Hans-Christoph Steiner \, 2004;
#X text 202 332 Adapted from [pan_core~];
#X connect 0 0 2 0;
#X connect 1 0 11 0;
#X connect 2 0 3 0;
#X connect 4 0 3 0;
#X connect 5 0 4 1;
#X connect 6 0 2 1;
#X connect 7 0 10 0;
#X connect 8 0 4 0;
#X connect 10 0 6 0;
#X connect 11 0 5 0;
#X restore 39 266 pd pan_core;
#X text 165 300 Adapted from [equal_power_pan~] \, Hans-Christoph Steiner
\, 2004;
#X text 320 312 comment;
#X obj 128 46 inlet~;
#X connect 0 0 6 0;
#X connect 1 0 5 0;
#X connect 3 0 6 1;
#X connect 4 0 6 3;
#X connect 5 0 3 0;
#X connect 5 0 4 0;
#X connect 6 0 2 0;
#X connect 9 0 6 2;
#X restore 65 525 pd crossfade;
#X msg 10 701 roomsize 0.6;
#X text 453 685 Based on the fft example from Pd. Available from the
help browser: Help -> Browser -> Pure Data -> 1.stuff -> soundfile-tools
-> 6.vocoder, f 144;
#X obj 517 171 hsl 128 15 0 1 0 0 empty empty empty -2 -8 0 10 -262144
-1 -1 1810 1;
#X obj 676 171 hsl 128 15 0 1 0 0 empty empty empty -2 -8 0 10 -262144
-1 -1 11120 1;
#X obj 828 170 hsl 128 15 0 1 0 0 empty empty empty -2 -8 0 10 -262144
-1 -1 12573 1;
#X obj 984 170 hsl 128 15 0 1 0 0 empty empty empty -2 -8 0 10 -262144
-1 -1 7050 1;
#X obj 649 535 soundfiler;
#X floatatom 649 559 10 0 0 0 - - -;
#X text 710 472 open sound file;
#X obj 27 21 bng 15 250 50 0 empty empty empty 17 7 0 10 -262144 -1
-1;
#X obj 648 583 array define voicesample;
#X obj 26 60 tabplay~ voicesample;
#X obj 72 126 gate;
#X obj 73 104 tgl 15 0 empty empty empty 17 7 0 10 -262144 -1 -1 0
1;
#X msg 234 71 72;
#X msg 267 71 78;
#X msg 202 71 82;
#X msg 299 71 62;
#X obj 337 71 hsl 128 15 0 1 0 0 empty empty empty -2 -8 0 10 -262144
-1 -1 11200 1;
#X obj 336 118 i;
#X obj 336 140 + 60;
#X obj 337 162 change;
#X floatatom 338 185 5 0 0 0 - - -;
#X obj 227 211 pack 0 100;
#X obj 166 211 pack 0 0;
#X obj 166 189 i;
#X obj 336 95 * 30;
#X obj 166 162 t b a a b;
#X text 12 83 turn on if you want to loop;
#X obj 649 472 loadbang;
#X text 182 46 click to trigger sound sample;
#X obj 893 254 loadbang;
#X msg 834 281 0.3;
#X msg 924 280 0.5;
#X msg 862 280 0.6;
#X msg 649 511 read -resize ../sounds/beebupp.wav voicesample;
#X text 742 719 This patch is based on the vocoder RL patch on Organelle
site;
#X text 801 746 https://www.critterandguitari.com/tags/vocoder;
#X obj 163 8 inlet;
#X text 202 7 note number \, int 60 - 127;
#X obj 385 8 inlet;
#X text 426 7 0-1 generate note and trigger;
#X text 688 491 change sound file name to the file you want to play
;
#X msg 892 278 0.99;
#X obj 632 14 inlet;
#X text 673 13 0-1 tune;
#X obj 757 16 inlet;
#X text 796 18 0-1 squelch;
#X obj 893 16 inlet;
#X text 932 18 0-1 wet/dry;
#X obj 66 809 outlet~;
#X connect 0 0 1 0;
#X connect 2 0 45 1;
#X connect 3 0 4 0;
#X connect 4 0 16 0;
#X connect 5 0 6 0;
#X connect 6 0 7 0;
#X connect 7 0 3 0;
#X connect 8 0 5 0;
#X connect 9 0 11 0;
#X connect 12 0 31 1;
#X connect 12 0 31 0;
#X connect 13 0 0 0;
#X connect 14 0 13 0;
#X connect 15 0 14 0;
#X connect 15 1 14 1;
#X connect 17 0 18 0;
#X connect 17 1 18 1;
#X connect 18 0 19 0;
#X connect 18 1 19 1;
#X connect 18 2 19 2;
#X connect 19 0 20 0;
#X connect 20 0 22 0;
#X connect 20 1 21 0;
#X connect 20 2 23 0;
#X connect 20 3 24 0;
#X connect 21 0 2 1;
#X connect 22 0 2 1;
#X connect 23 0 2 1;
#X connect 24 0 2 1;
#X connect 25 0 45 2;
#X connect 29 0 31 0;
#X connect 30 0 31 0;
#X connect 31 0 96 0;
#X connect 32 0 33 0;
#X connect 33 0 36 0;
#X connect 34 0 39 0;
#X connect 35 0 40 0;
#X connect 38 0 37 0;
#X connect 38 0 32 0;
#X connect 39 0 42 0;
#X connect 40 0 41 0;
#X connect 41 0 30 0;
#X connect 42 0 29 0;
#X connect 43 0 46 0;
#X connect 44 0 2 0;
#X connect 44 0 45 0;
#X connect 45 0 12 0;
#X connect 46 0 31 0;
#X connect 48 0 8 0;
#X connect 49 0 15 0;
#X connect 50 0 27 0;
#X connect 51 0 38 0;
#X connect 52 0 53 0;
#X connect 55 0 57 0;
#X connect 57 0 44 0;
#X connect 57 1 58 1;
#X connect 58 0 57 0;
#X connect 59 0 58 0;
#X connect 60 0 73 0;
#X connect 61 0 73 0;
#X connect 62 0 73 0;
#X connect 63 0 73 0;
#X connect 64 0 72 0;
#X connect 65 0 66 0;
#X connect 66 0 67 0;
#X connect 67 0 68 0;
#X connect 67 0 73 0;
#X connect 69 0 17 0;
#X connect 70 0 17 0;
#X connect 71 0 70 0;
#X connect 72 0 65 0;
#X connect 73 0 57 0;
#X connect 73 1 71 1;
#X connect 73 2 69 0;
#X connect 73 3 71 0;
#X connect 75 0 81 0;
#X connect 77 0 79 0;
#X connect 77 0 89 0;
#X connect 77 0 80 0;
#X connect 77 0 78 0;
#X connect 78 0 48 0;
#X connect 79 0 51 0;
#X connect 80 0 49 0;
#X connect 81 0 52 0;
#X connect 84 0 73 0;
#X connect 86 0 64 0;
#X connect 89 0 50 0;
#X connect 90 0 48 0;
#X connect 92 0 49 0;
#X connect 94 0 51 0;
