#N canvas 162 93 726 424 12;
#X obj 297 252 ml.ann;
#X msg 373 196 mode 1;
#X msg 375 224 help;
#X msg 201 108 add 1 0.1 0.2 0.3;
#X msg 203 142 add 2 0.6 0.5 0.4;
#X msg 373 166 train;
#X msg 346 67 map 0.1 0.2 0.3;
#X msg 347 100 map 0.6 0.5 0.4;
#X floatatom 299 314 5 0 0 0 - - -;
#X obj 363 289 print ann;
#X msg 337 38 map 0.1 0.2 0.2;
#X msg 387 14 map 0.05 0.2 0.3;
#X connect 0 0 8 0;
#X connect 0 1 9 0;
#X connect 1 0 0 0;
#X connect 2 0 0 0;
#X connect 3 0 0 0;
#X connect 4 0 0 0;
#X connect 5 0 0 0;
#X connect 6 0 0 0;
#X connect 7 0 0 0;
#X connect 10 0 0 0;
#X connect 11 0 0 0;
