#N canvas 176 23 1264 855 12;
#X msg 586 306 train;
#X msg 585 282 clear;
#X obj 342 413 print ann;
#X msg 586 329 help;
#X obj 284 392 ml.ann;
#X obj 221 695 hsl 128 15 0 1 0 0 empty empty empty -2 -8 0 10 -262144
-1 -1 0 1;
#X obj 363 696 hsl 128 15 0 1 0 0 empty empty empty -2 -8 0 10 -262144
-1 -1 0 1;
#X obj 28 317 list prepend;
#X obj 28 345 list prepend add;
#X obj 28 371 list trim;
#X obj 77 266 i;
#X obj 130 267 i;
#X msg 585 213 mode 1;
#X obj 215 792 dac~;
#X obj 283 200 list trim;
#X obj 283 174 list prepend map;
#X floatatom 130 219 5 0 0 0 - - -;
#X floatatom 76 219 5 0 0 0 - - -;
#X obj 79 104 gate 2 1;
#X obj 79 80 + 1;
#X obj 284 443 print output;
#X text 697 191 number of outputs;
#X text 434 500 number of outputs;
#X obj 403 85 serial_communication_example;
#X msg 469 35 close;
#X msg 469 60 devices;
#X obj 403 14 hradio 15 1 0 8 empty empty port 0 -8 0 10 -262144 -1
-1 3;
#X msg 403 36 open \$1;
#X obj 147 107 bng 15 250 50 0 empty empty empty 17 7 0 10 -262144
-1 -1;
#X obj 59 110 bng 15 250 50 0 empty empty empty 17 7 0 10 -262144 -1
-1;
#X obj 79 58 hradio 15 1 0 2 empty empty train/map 0 -8 0 10 -262144
-1 -1 1;
#X text 64 177 type in the training target;
#X text 648 214 mode: classification 0 \, regression 1;
#X text 634 280 clear before starting new training;
#X text 635 307 train after adding the data;
#X obj 297 92 gate;
#X obj 297 70 tgl 15 0 empty empty empty 17 7 0 10 -262144 -1 -1 0
1;
#X obj 77 242 * 100;
#X obj 130 244 * 100;
#X obj 214 526 / 100;
#X obj 282 528 / 100;
#X obj 216 647 hsl 128 15 0 1 0 0 empty empty empty -2 -8 0 10 -262144
-1 -1 0 1;
#X obj 360 647 hsl 128 15 0 1 0 0 empty empty empty -2 -8 0 10 -262144
-1 -1 0 1;
#X obj 215 501 unpack 0 0 0 0, f 29;
#X obj 350 527 / 100;
#X obj 416 526 / 100;
#X obj 503 646 hsl 128 15 0 1 0 0 empty empty empty -2 -8 0 10 -262144
-1 -1 0 1;
#X obj 645 646 hsl 128 15 0 1 0 0 empty empty empty -2 -8 0 10 -262144
-1 -1 0 1;
#X obj 504 696 hsl 128 15 0 1 0 0 empty empty empty -2 -8 0 10 -262144
-1 -1 0 1;
#X obj 646 697 hsl 128 15 0 1 0 0 empty empty empty -2 -8 0 10 -262144
-1 -1 0 1;
#X obj 108 291 pak 0 0 0 0;
#X obj 179 265 i;
#X obj 232 266 i;
#X floatatom 232 218 5 0 0 0 - - -;
#X floatatom 178 218 5 0 0 0 - - -;
#X obj 179 241 * 100;
#X obj 232 243 * 100;
#X msg 586 190 num_outputs 4;
#X text 539 672 cutoff;
#X text 231 671 offset;
#X text 383 670 frequency;
#X text 687 673 resonance;
#X text 216 118 turn on to let the data go through;
#X msg 583 354 write /Users/mikst/Documents/workshop/LINZ/PD/testSynth.data
;
#X msg 582 380 read /Users/mikst/Documents/workshop/LINZ/PD/testSynth.data
;
#X obj 213 621 line;
#X obj 317 621 line;
#X obj 411 619 line;
#X obj 509 613 line;
#X obj 375 77 bng 15 250 50 0 empty empty empty 17 7 0 10 -262144 -1
-1;
#X obj 214 548 max 0;
#X obj 214 573 min 1;
#X msg 213 599 \$1 100;
#X obj 280 552 max 0;
#X obj 280 577 min 1;
#X obj 351 550 max 0;
#X obj 351 575 min 1;
#X obj 463 548 max 0;
#X obj 463 573 min 1;
#X msg 315 601 \$1 100;
#X msg 411 597 \$1 100;
#X msg 509 591 \$1 100;
#X obj 275 764 hsl 128 15 0 1 0 0 empty empty empty -2 -8 0 10 -262144
-1 -1 0 1;
#X text 408 764 volume;
#X obj 216 763 *~ 0.8;
#X obj 589 118 loadbang;
#X obj 588 145 delay 500;
#X obj 587 167 t b b;
#X obj 217 724 analogStyle/analogStyle, f 29;
#X connect 0 0 4 0;
#X connect 1 0 4 0;
#X connect 3 0 4 0;
#X connect 4 0 20 0;
#X connect 4 0 43 0;
#X connect 4 1 2 0;
#X connect 5 0 17 0;
#X connect 5 0 88 0;
#X connect 6 0 16 0;
#X connect 6 0 88 1;
#X connect 7 0 8 0;
#X connect 8 0 9 0;
#X connect 9 0 4 0;
#X connect 10 0 50 0;
#X connect 11 0 50 1;
#X connect 12 0 4 0;
#X connect 14 0 4 0;
#X connect 15 0 14 0;
#X connect 16 0 38 0;
#X connect 17 0 37 0;
#X connect 18 0 29 0;
#X connect 18 0 7 0;
#X connect 18 1 15 0;
#X connect 18 1 28 0;
#X connect 19 0 18 0;
#X connect 23 0 35 1;
#X connect 23 0 69 0;
#X connect 24 0 23 0;
#X connect 25 0 23 0;
#X connect 26 0 27 0;
#X connect 27 0 23 0;
#X connect 30 0 19 0;
#X connect 35 0 18 1;
#X connect 36 0 35 0;
#X connect 37 0 10 0;
#X connect 38 0 11 0;
#X connect 39 0 70 0;
#X connect 40 0 73 0;
#X connect 41 0 88 0;
#X connect 42 0 88 1;
#X connect 43 0 39 0;
#X connect 43 1 40 0;
#X connect 43 2 44 0;
#X connect 43 3 45 0;
#X connect 44 0 75 0;
#X connect 45 0 77 0;
#X connect 46 0 88 2;
#X connect 47 0 88 3;
#X connect 48 0 54 0;
#X connect 48 0 88 2;
#X connect 49 0 53 0;
#X connect 49 0 88 3;
#X connect 50 0 7 1;
#X connect 51 0 50 2;
#X connect 52 0 50 3;
#X connect 53 0 56 0;
#X connect 54 0 55 0;
#X connect 55 0 51 0;
#X connect 56 0 52 0;
#X connect 57 0 4 0;
#X connect 63 0 4 0;
#X connect 64 0 4 0;
#X connect 65 0 41 0;
#X connect 66 0 42 0;
#X connect 67 0 46 0;
#X connect 68 0 47 0;
#X connect 70 0 71 0;
#X connect 71 0 72 0;
#X connect 72 0 65 0;
#X connect 73 0 74 0;
#X connect 74 0 79 0;
#X connect 75 0 76 0;
#X connect 76 0 80 0;
#X connect 77 0 78 0;
#X connect 78 0 81 0;
#X connect 79 0 66 0;
#X connect 80 0 67 0;
#X connect 81 0 68 0;
#X connect 82 0 84 1;
#X connect 84 0 13 0;
#X connect 84 0 13 1;
#X connect 85 0 86 0;
#X connect 86 0 87 0;
#X connect 87 0 57 0;
#X connect 87 1 12 0;
#X connect 88 0 84 0;
