#N canvas 81 23 1188 790 12;
#X msg 586 306 train;
#X msg 585 282 clear;
#X obj 322 417 print ann;
#X msg 586 329 help;
#X obj 284 392 ml.ann;
#X obj 222 647 hsl 128 15 0 1 0 0 empty empty empty -2 -8 0 10 -262144
-1 -1 0 1;
#X obj 364 648 hsl 128 15 0 1 0 0 empty empty empty -2 -8 0 10 -262144
-1 -1 0 1;
#X obj 108 291 pak 0 0, f 8;
#X obj 28 317 list prepend;
#X obj 28 345 list prepend add;
#X obj 28 371 list trim;
#X obj 108 266 i;
#X obj 161 267 i;
#X msg 586 190 num_outputs 2;
#X msg 585 213 mode 1;
#X obj 142 774 dac~;
#X obj 268 263 list trim;
#X obj 268 237 list prepend map;
#X floatatom 161 219 5 0 0 0 - - -;
#X floatatom 107 219 5 0 0 0 - - -;
#X obj 79 104 gate 2 1;
#X obj 79 80 + 1;
#X obj 162 435 print output;
#X text 697 191 number of outputs;
#X text 343 451 number of outputs;
#X obj 261 455 unpack 0 0;
#X obj 403 85 serial_communication_example;
#X msg 469 35 close;
#X msg 469 60 devices;
#X obj 403 14 hradio 15 1 0 8 empty empty port 0 -8 0 10 -262144 -1
-1 3;
#X msg 403 36 open \$1;
#X obj 147 107 bng 15 250 50 0 empty empty empty 17 7 0 10 -262144
-1 -1;
#X obj 59 110 bng 15 250 50 0 empty empty empty 17 7 0 10 -262144 -1
-1;
#X obj 59 50 hradio 15 1 0 2 empty empty train/map 0 -8 0 10 -262144
-1 -1 1;
#X text 99 195 speed;
#X text 157 197 start pos;
#X text 64 177 type in the training target;
#X text 648 214 mode: classification 0 \, regression 1;
#X text 634 280 clear before starting new training;
#X text 635 307 train after adding the data;
#X obj 229 91 gate;
#X obj 229 69 tgl 15 0 empty empty empty 17 7 0 10 -262144 -1 -1 0
1;
#X obj 108 242 * 100;
#X obj 161 244 * 100;
#X obj 219 601 hsl 128 15 0 1 0 0 empty empty empty -2 -8 0 10 -262144
-1 -1 0 1;
#X obj 361 597 hsl 128 15 0 1 0 0 empty empty empty -2 -8 0 10 -262144
-1 -1 0 1;
#X obj 275 738 hsl 128 15 0 1 0 0 empty empty empty -2 -8 0 10 -262144
-1 -1 0 1;
#X text 407 735 volume;
#X obj 161 701 drummy/drummy;
#X obj 144 734 *~ 0.5;
#X obj 212 735 *~ 0.5;
#X obj 119 669 tgl 15 0 empty empty empty 17 7 0 10 -262144 -1 -1 0
1;
#X msg 172 665 74;
#X obj 402 112 unpack 0 0 0 0, f 18;
#X floatatom 401 140 5 0 0 0 - - -;
#X floatatom 441 141 5 0 0 0 - - -;
#X floatatom 482 141 5 0 0 0 - - -;
#X floatatom 523 141 5 0 0 0 - - -;
#X obj 403 174 > 600;
#X obj 449 173 < 500;
#X obj 403 202 sel 1;
#X obj 450 202 sel 1;
#X obj 403 227 onebang;
#X obj 402 253 bng 15 250 50 0 empty empty empty 17 7 0 10 -262144
-1 -1;
#X obj 323 62 pack 0 0 0;
#X text 220 628 resonance;
#X text 395 627 wet/dry;
#X text 175 116 turn onto let the data go in;
#X msg 583 354 write /Users/mikst/Documents/workshop/LINZ/PD/testDrummy.data
, f 64;
#X msg 582 380 read /Users/mikst/Documents/workshop/LINZ/PD/testDrummy.data
;
#X obj 163 411 gate;
#X obj 141 413 tgl 15 0 empty empty empty 17 7 0 10 -262144 -1 -1 0
1;
#X text 44 667 toggle on;
#X text 13 646 to start the loop;
#X obj 608 101 loadbang;
#X obj 260 481 / 100;
#X obj 259 576 line;
#X obj 260 503 max 0;
#X obj 260 528 min 1;
#X msg 259 554 \$1 100;
#X obj 360 477 / 100;
#X obj 359 572 line;
#X obj 360 499 max 0;
#X obj 360 524 min 1;
#X msg 359 550 \$1 100;
#X obj 607 128 delay 500;
#X obj 606 150 t b b;
#X connect 0 0 4 0;
#X connect 1 0 4 0;
#X connect 3 0 4 0;
#X connect 4 0 25 0;
#X connect 4 0 70 1;
#X connect 4 1 2 0;
#X connect 5 0 19 0;
#X connect 5 0 48 2;
#X connect 6 0 18 0;
#X connect 6 0 48 3;
#X connect 7 0 8 1;
#X connect 8 0 9 0;
#X connect 9 0 10 0;
#X connect 10 0 4 0;
#X connect 11 0 7 0;
#X connect 12 0 7 1;
#X connect 13 0 4 0;
#X connect 14 0 4 0;
#X connect 16 0 4 0;
#X connect 17 0 16 0;
#X connect 18 0 43 0;
#X connect 19 0 42 0;
#X connect 20 0 32 0;
#X connect 20 0 8 0;
#X connect 20 1 17 0;
#X connect 20 1 31 0;
#X connect 21 0 20 0;
#X connect 25 0 75 0;
#X connect 25 1 80 0;
#X connect 26 0 53 0;
#X connect 27 0 26 0;
#X connect 28 0 26 0;
#X connect 29 0 30 0;
#X connect 30 0 26 0;
#X connect 33 0 21 0;
#X connect 40 0 20 1;
#X connect 41 0 40 0;
#X connect 42 0 11 0;
#X connect 43 0 12 0;
#X connect 44 0 48 2;
#X connect 45 0 48 3;
#X connect 46 0 50 1;
#X connect 46 0 49 1;
#X connect 48 0 49 0;
#X connect 48 1 50 0;
#X connect 49 0 15 0;
#X connect 50 0 15 1;
#X connect 51 0 48 0;
#X connect 52 0 48 1;
#X connect 53 0 54 0;
#X connect 53 1 55 0;
#X connect 53 1 64 0;
#X connect 53 2 56 0;
#X connect 53 2 64 1;
#X connect 53 3 57 0;
#X connect 53 3 64 2;
#X connect 54 0 58 0;
#X connect 54 0 59 0;
#X connect 58 0 60 0;
#X connect 59 0 61 0;
#X connect 60 0 62 0;
#X connect 61 0 62 1;
#X connect 62 0 63 0;
#X connect 63 0 52 0;
#X connect 64 0 40 1;
#X connect 68 0 4 0;
#X connect 69 0 4 0;
#X connect 70 0 22 0;
#X connect 71 0 70 0;
#X connect 74 0 85 0;
#X connect 75 0 77 0;
#X connect 76 0 44 0;
#X connect 77 0 78 0;
#X connect 78 0 79 0;
#X connect 79 0 76 0;
#X connect 80 0 82 0;
#X connect 81 0 45 0;
#X connect 82 0 83 0;
#X connect 83 0 84 0;
#X connect 84 0 81 0;
#X connect 85 0 86 0;
#X connect 86 0 13 0;
#X connect 86 1 14 0;
