#N canvas 235 23 995 782 12;
#X obj 112 190 comport \$1 9600;
#X msg 177 128 close;
#X msg 177 153 devices;
#X obj 111 107 hradio 15 1 0 8 empty empty port 0 -8 0 10 -262144 -1
-1 3;
#X msg 111 129 open \$1;
#X obj 86 158 gate;
#X obj 86 136 tgl 15 0 empty empty empty 17 7 0 10 -262144 -1 -1 0
1;
#X obj 110 215 select 0;
#X obj 109 239 sel 13;
#X obj 109 265 sel 10;
#X obj 186 297 list store;
#X obj 225 240 list prepend append;
#X obj 225 268 list trim;
#X obj 108 288 t b b;
#X obj 186 323 list tosymbol;
#X obj 186 214 sel 32;
#X obj 104 370 list store;
#X obj 186 370 list prepend append;
#X obj 186 394 list trim;
#X obj 104 392 list trim;
#X obj 186 347 f;
#X floatatom 105 445 5 0 0 0 - - -;
#X floatatom 145 445 5 0 0 0 - - -;
#X floatatom 187 445 5 0 0 0 - - -;
#X floatatom 228 445 5 0 0 0 - - -;
#X obj 105 419 unpack 1 1 1 1;
#X text 238 214 space;
#X obj 104 533 outlet;
#X obj 75 74 inlet;
#X connect 0 0 7 0;
#X connect 1 0 0 0;
#X connect 2 0 0 0;
#X connect 3 0 4 0;
#X connect 4 0 5 1;
#X connect 5 0 0 0;
#X connect 6 0 5 0;
#X connect 7 1 8 0;
#X connect 8 1 9 0;
#X connect 9 0 13 0;
#X connect 9 1 15 0;
#X connect 10 0 14 0;
#X connect 11 0 12 0;
#X connect 12 0 10 0;
#X connect 13 0 16 1;
#X connect 13 1 16 0;
#X connect 14 0 20 0;
#X connect 15 0 10 0;
#X connect 15 0 10 1;
#X connect 15 1 11 0;
#X connect 16 0 19 0;
#X connect 17 0 18 0;
#X connect 18 0 16 0;
#X connect 19 0 25 0;
#X connect 19 0 27 0;
#X connect 20 0 17 0;
#X connect 25 0 21 0;
#X connect 25 1 22 0;
#X connect 25 2 23 0;
#X connect 25 3 24 0;
#X connect 28 0 0 0;
