#N canvas 176 23 1264 855 12;
#X obj 102 244 hsl 128 15 0 1 0 0 empty empty empty -2 -8 0 10 -262144
-1 -1 1900 1;
#X obj 244 245 hsl 128 15 0 1 0 0 empty empty empty -2 -8 0 10 -262144
-1 -1 4800 1;
#X obj 96 341 dac~;
#X obj 403 85 serial_communication_example;
#X msg 469 35 close;
#X msg 469 60 devices;
#X obj 403 14 hradio 15 1 0 8 empty empty port 0 -8 0 10 -262144 -1
-1 3;
#X msg 403 36 open \$1;
#X obj 385 245 hsl 128 15 0 1 0 0 empty empty empty -2 -8 0 10 -262144
-1 -1 10900 1;
#X obj 527 246 hsl 128 15 0 1 0 0 empty empty empty -2 -8 0 10 -262144
-1 -1 1200 1;
#X text 420 221 cutoff;
#X text 112 220 offset;
#X text 264 219 frequency;
#X text 568 222 resonance;
#X obj 375 77 bng 15 250 50 0 empty empty empty 17 7 0 10 -262144 -1
-1;
#X obj 156 313 hsl 128 15 0 1 0 0 empty empty empty -2 -8 0 10 -262144
-1 -1 6500 1;
#X text 289 313 volume;
#X obj 97 312 *~ 0.8;
#X obj 98 273 analogStyle/analogStyle, f 29;
#X obj 403 111 unpack 0 0 0 0;
#X floatatom 403 144 5 0 0 0 - - -;
#X floatatom 445 144 5 0 0 0 - - -;
#X floatatom 486 144 5 0 0 0 - - -;
#X floatatom 528 144 5 0 0 0 - - -;
#X connect 0 0 18 0;
#X connect 1 0 18 1;
#X connect 3 0 14 0;
#X connect 3 0 19 0;
#X connect 4 0 3 0;
#X connect 5 0 3 0;
#X connect 6 0 7 0;
#X connect 7 0 3 0;
#X connect 8 0 18 2;
#X connect 9 0 18 3;
#X connect 15 0 17 1;
#X connect 17 0 2 0;
#X connect 17 0 2 1;
#X connect 18 0 17 0;
#X connect 19 0 20 0;
#X connect 19 1 21 0;
#X connect 19 2 22 0;
#X connect 19 3 23 0;
