#N canvas 81 23 1188 790 12;
#X obj 254 313 hsl 128 15 0 1 0 0 empty empty empty -2 -8 0 10 -262144
-1 -1 12300 1;
#X obj 396 314 hsl 128 15 0 1 0 0 empty empty empty -2 -8 0 10 -262144
-1 -1 1900 1;
#X obj 174 440 dac~;
#X obj 204 91 serial_communication_example;
#X msg 270 41 close;
#X msg 270 66 devices;
#X obj 204 20 hradio 15 1 0 8 empty empty port 0 -8 0 10 -262144 -1
-1 3;
#X msg 204 42 open \$1;
#X obj 307 404 hsl 128 15 0 1 0 0 empty empty empty -2 -8 0 10 -262144
-1 -1 0 1;
#X text 439 401 volume;
#X obj 193 367 drummy/drummy;
#X obj 176 400 *~ 0.5;
#X obj 244 401 *~ 0.5;
#X obj 151 335 tgl 15 0 empty empty empty 17 7 0 10 -262144 -1 -1 1
1;
#X msg 204 331 74;
#X obj 203 118 unpack 0 0 0 0, f 18;
#X floatatom 202 146 5 0 0 0 - - -;
#X floatatom 242 147 5 0 0 0 - - -;
#X floatatom 283 147 5 0 0 0 - - -;
#X floatatom 324 147 5 0 0 0 - - -;
#X obj 204 180 > 600;
#X obj 250 179 < 500;
#X obj 204 208 sel 1;
#X obj 251 208 sel 1;
#X obj 204 233 onebang;
#X obj 203 259 bng 15 250 50 0 empty empty empty 17 7 0 10 -262144
-1 -1;
#X text 252 294 resonance;
#X text 427 293 wet/dry;
#X text 76 333 toggle on;
#X text 45 312 to start the loop;
#X msg 220 300 68;
#X connect 0 0 10 2;
#X connect 1 0 10 3;
#X connect 3 0 15 0;
#X connect 4 0 3 0;
#X connect 5 0 3 0;
#X connect 6 0 7 0;
#X connect 7 0 3 0;
#X connect 8 0 12 1;
#X connect 8 0 11 1;
#X connect 10 0 11 0;
#X connect 10 1 12 0;
#X connect 11 0 2 0;
#X connect 12 0 2 1;
#X connect 13 0 10 0;
#X connect 14 0 10 1;
#X connect 15 0 16 0;
#X connect 15 1 17 0;
#X connect 15 2 18 0;
#X connect 15 3 19 0;
#X connect 16 0 20 0;
#X connect 16 0 21 0;
#X connect 20 0 22 0;
#X connect 21 0 23 0;
#X connect 22 0 24 0;
#X connect 23 0 24 1;
#X connect 24 0 25 0;
#X connect 25 0 14 0;
#X connect 30 0 10 1;
