#N canvas 89 23 1231 799 12;
#X obj 319 251 ml.svm;
#X obj 129 481 dac~;
#X obj 43 251 list prepend;
#X obj 43 279 list prepend add;
#X obj 43 305 list trim;
#X obj 318 218 list trim;
#X obj 318 192 list prepend map;
#X obj 176 106 gate 2 1;
#X obj 176 82 + 1;
#X obj 244 109 bng 15 250 50 0 empty empty empty 17 7 0 10 -262144
-1 -1;
#X obj 156 112 bng 15 250 50 0 empty empty empty 17 7 0 10 -262144
-1 -1;
#X obj 156 52 hradio 15 1 0 2 empty empty train/map 0 -8 0 10 -262144
-1 -1 1;
#X obj 359 89 gate;
#X obj 359 68 tgl 15 0 empty empty empty 17 7 0 10 -262144 -1 -1 0
1;
#X obj 529 98 serial_communication_example;
#X msg 599 50 close;
#X msg 599 75 devices;
#X obj 533 29 hradio 15 1 0 8 empty empty port 0 -8 0 10 -262144 -1
-1 3;
#X msg 533 51 open \$1;
#X obj 125 207 hradio 15 1 0 4 empty empty guesture 0 -8 0 10 -262144
-1 -1 0;
#X obj 125 226 + 1;
#X floatatom 318 299 5 0 0 0 - - -;
#X msg 498 219 clear;
#X msg 500 246 train;
#X msg 501 274 help;
#X msg 660 536 null_rejection 1;
#X msg 661 562 null_rejection_coeff 0.5;
#X text 259 444 triggering sound file example;
#X text 743 94 outputs sensor data as a list;
#X text 664 25 1: open a port to read sensor data;
#X text 56 19 2: switch to train mode;
#X text 246 32 and open the gate to add training data;
#X text 16 178 4: set which gesture you are trainig;
#X text 239 15 5:make sure you are posing the guesture;
#X text 550 218 3:clear before training new set;
#X text 41 150 6: repeat 4-5 to add all the guestures;
#X text 549 245 7:train the network;
#X text 302 49 close the gate before you move;
#X text 9 71 8:switch to map mode;
#X text 322 119 9: open the gate and let;
#X text 323 138 sensor data to be mapped;
#X text 255 334 10:classification result;
#X obj 138 442 triggersoundfile;
#X msg 501 301 write /Users/mikst/Documents/workshop/LINZ/PD/testSVM
;
#X msg 500 326 read /Users/mikst/Documents/workshop/LINZ/PD/testSVM.model
;
#X text 596 278 write trained model and data \, need absolute filepath
;
#X text 666 347 read trained model \, need absolute filepath;
#X text 565 363 you can also read .data then you need to train afterwards
;
#X obj 662 463 loadbang;
#X obj 663 485 delay 500;
#X obj 662 509 t b b;
#X obj 137 383 change;
#X obj 136 407 sel 1 2 3 4, f 18;
#X obj 529 121 unpack 0 0 0 0 0 0, f 29;
#X floatatom 529 146 5 0 0 0 - - -;
#X floatatom 568 146 5 0 0 0 - - -;
#X floatatom 608 147 5 0 0 0 - - -;
#X floatatom 648 147 5 0 0 0 - - -;
#X floatatom 687 147 5 0 0 0 - - -;
#X floatatom 727 148 5 0 0 0 - - -;
#X obj 530 172 pack 0 0 0;
#X text 611 173 re pack sensor data that you are using;
#X floatatom 147 249 5 0 0 0 - - -;
#X obj 58 208 loadbang;
#X connect 0 0 21 0;
#X connect 2 0 3 0;
#X connect 3 0 4 0;
#X connect 4 0 0 0;
#X connect 5 0 0 0;
#X connect 6 0 5 0;
#X connect 7 0 10 0;
#X connect 7 0 2 0;
#X connect 7 1 9 0;
#X connect 7 1 6 0;
#X connect 8 0 7 0;
#X connect 11 0 8 0;
#X connect 12 0 7 1;
#X connect 13 0 12 0;
#X connect 14 0 53 0;
#X connect 15 0 14 0;
#X connect 16 0 14 0;
#X connect 17 0 18 0;
#X connect 18 0 14 0;
#X connect 19 0 20 0;
#X connect 20 0 2 1;
#X connect 20 0 62 0;
#X connect 21 0 51 0;
#X connect 22 0 0 0;
#X connect 23 0 0 0;
#X connect 24 0 0 0;
#X connect 25 0 0 0;
#X connect 26 0 0 0;
#X connect 42 0 1 0;
#X connect 42 0 1 1;
#X connect 43 0 0 0;
#X connect 44 0 0 0;
#X connect 48 0 49 0;
#X connect 49 0 50 0;
#X connect 50 0 25 0;
#X connect 50 1 26 0;
#X connect 51 0 52 0;
#X connect 52 1 42 0;
#X connect 52 2 42 1;
#X connect 52 3 42 2;
#X connect 53 0 54 0;
#X connect 53 1 55 0;
#X connect 53 2 56 0;
#X connect 53 3 57 0;
#X connect 53 4 58 0;
#X connect 53 5 59 0;
#X connect 54 0 60 0;
#X connect 55 0 60 1;
#X connect 56 0 60 2;
#X connect 60 0 12 1;
#X connect 63 0 19 0;
