#N canvas 160 23 1249 838 12;
#X obj 189 217 mtof;
#X obj 189 262 sig~;
#X obj 225 669 moog~;
#X msg 139 622 reset;
#X obj 93 369 *~;
#X obj 102 450 *~ 0.707;
#X obj 165 434 *~ 0.707;
#X obj 185 363 +~;
#X obj 109 400 +~;
#X obj 193 145 hsl 128 15 0 1 0 0 empty empty empty -2 -8 0 10 -262144
-1 -1 0 1;
#X obj 344 232 sig~;
#X obj 344 261 lop~ 5;
#X obj 342 204 + 100;
#X obj 342 179 * 4000;
#X obj 344 148 hsl 128 15 0 1 0 0 empty empty empty -2 -8 0 10 -262144
-1 -1 0 1;
#X obj 493 247 sig~;
#X obj 493 275 lop~ 5;
#X obj 493 224 * 4;
#X obj 494 196 f;
#X obj 496 148 hsl 128 15 0 1 0 0 empty empty empty -2 -8 0 10 -262144
-1 -1 0 1;
#X obj 70 303 sig~;
#X obj 69 332 lop~ 5;
#X obj 70 280 * 2;
#X obj 42 146 hsl 128 15 0 1 0 0 empty empty empty -2 -8 0 10 -262144
-1 -1 0 1;
#X obj 164 413 blsaw;
#X obj 102 428 blsaw;
#X obj 178 318 *~ 0.8;
#X obj 193 567 *~ 1;
#X obj 225 765 outlet~;
#X obj 190 170 * 127;
#X obj 190 193 i;
#X text 354 125 cutoff;
#X text 46 124 offset;
#X text 198 123 frequency;
#X text 502 126 resonance;
#X text 333 735 example from Organelle Analog Style synthesizer patch
;
#X text 335 756 https://www.critterandguitari.com/organelle-patches
;
#X obj 39 99 inlet;
#X obj 189 97 inlet;
#X obj 343 99 inlet;
#X obj 495 100 inlet;
#X obj 225 716 *~ 0.5;
#X connect 0 0 1 0;
#X connect 1 0 26 0;
#X connect 2 0 41 0;
#X connect 3 0 2 0;
#X connect 4 0 8 0;
#X connect 5 0 27 0;
#X connect 6 0 27 0;
#X connect 7 0 24 0;
#X connect 8 0 25 0;
#X connect 9 0 29 0;
#X connect 10 0 11 0;
#X connect 11 0 2 1;
#X connect 12 0 10 0;
#X connect 13 0 12 0;
#X connect 14 0 13 0;
#X connect 15 0 16 0;
#X connect 16 0 2 2;
#X connect 17 0 15 0;
#X connect 18 0 17 0;
#X connect 19 0 18 0;
#X connect 20 0 21 0;
#X connect 21 0 4 1;
#X connect 22 0 20 0;
#X connect 23 0 22 0;
#X connect 24 0 6 0;
#X connect 25 0 5 0;
#X connect 26 0 4 0;
#X connect 26 0 7 0;
#X connect 27 0 2 0;
#X connect 29 0 30 0;
#X connect 30 0 0 0;
#X connect 37 0 23 0;
#X connect 38 0 9 0;
#X connect 39 0 14 0;
#X connect 40 0 19 0;
#X connect 41 0 28 0;
