#N canvas 90 129 1143 810 12;
#X msg 586 306 train;
#X msg 585 282 clear;
#X obj 342 413 print ann;
#X msg 586 329 help;
#X obj 284 392 ml.ann;
#X obj 222 647 hsl 128 15 0 1 0 0 empty empty empty -2 -8 0 10 -262144
-1 -1 5700 1;
#X obj 364 648 hsl 128 15 0 1 0 0 empty empty empty -2 -8 0 10 -262144
-1 -1 3300 1;
#X obj 108 291 pak 0 0, f 8;
#X obj 28 317 list prepend;
#X obj 28 345 list prepend add;
#X obj 28 371 list trim;
#X obj 108 266 i;
#X obj 161 267 i;
#X msg 846 209 num_outputs 2;
#X msg 845 232 mode 1;
#X obj 216 771 dac~;
#X obj 283 200 list trim;
#X obj 283 174 list prepend map;
#X floatatom 161 219 5 0 0 0 - - -;
#X floatatom 107 219 5 0 0 0 - - -;
#X obj 79 104 gate 2 1;
#X obj 79 80 + 1;
#X obj 182 352 print output;
#X text 957 210 number of outputs;
#X obj 219 459 unpack 0 0;
#X text 370 679 granular synthesis example;
#X text 371 700 double click to see inside;
#X text 219 626 play speed;
#X text 359 626 playhead start position;
#X obj 460 86 serial_communication_example;
#X msg 526 36 close;
#X msg 526 61 devices;
#X obj 460 15 hradio 15 1 0 8 empty empty port 0 -8 0 10 -262144 -1
-1 3;
#X msg 460 37 open \$1;
#X obj 147 107 bng 15 250 50 0 empty empty empty 17 7 0 10 -262144
-1 -1;
#X obj 59 110 bng 15 250 50 0 empty empty empty 17 7 0 10 -262144 -1
-1;
#X obj 59 50 hradio 15 1 0 2 empty empty train/map 0 -8 0 10 -262144
-1 -1 1;
#X text 99 195 speed;
#X text 157 197 start pos;
#X text 64 177 type in the training target;
#X text 908 233 mode: classification 0 \, regression 1;
#X text 634 280 clear before starting new training;
#X text 635 307 train after adding the data;
#X obj 297 92 gate;
#X obj 297 70 tgl 15 0 empty empty empty 17 7 0 10 -262144 -1 -1 0
1;
#X obj 108 242 * 100;
#X obj 161 244 * 100;
#X obj 220 601 hsl 128 15 0 1 0 0 empty empty empty -2 -8 0 10 -262144
-1 -1 0 1;
#X obj 364 601 hsl 128 15 0 1 0 0 empty empty empty -2 -8 0 10 -262144
-1 -1 0 1;
#X obj 275 727 hsl 128 15 0 1 0 0 empty empty empty -2 -8 0 10 -262144
-1 -1 8600 1;
#X text 408 727 volume;
#X obj 218 483 / 100;
#X obj 217 578 line;
#X obj 218 505 max 0;
#X obj 218 530 min 1;
#X msg 217 556 \$1 100;
#X obj 181 327 gate;
#X obj 182 307 tgl 15 0 empty empty empty 17 7 0 10 -262144 -1 -1 0
1;
#X obj 362 480 / 100;
#X obj 361 575 line;
#X obj 362 502 max 0;
#X obj 362 527 min 1;
#X msg 361 553 \$1 100;
#X msg 584 360 write /Users/mikst/Documents/workshop/LINZ/PD/testGranular.data
, f 63;
#X msg 584 386 read /Users/mikst/Documents/workshop/LINZ/PD/testGranular.data
, f 63;
#X obj 846 133 loadbang;
#X text 210 118 turn on to let the data go in;
#X obj 441 67 bng 15 250 50 0 empty empty empty 17 7 0 10 -262144 -1
-1;
#X obj 845 157 delay 500;
#X obj 846 180 t b b;
#X obj 218 728 *~ 0;
#X obj 218 676 granular/granular, f 20;
#X obj 461 118 unpack 0 0 0 0 0 0, f 29;
#X floatatom 461 143 5 0 0 0 - - -;
#X floatatom 500 143 5 0 0 0 - - -;
#X floatatom 540 144 5 0 0 0 - - -;
#X floatatom 580 144 5 0 0 0 - - -;
#X floatatom 619 144 5 0 0 0 - - -;
#X floatatom 659 145 5 0 0 0 - - -;
#X obj 464 175 pack 0 0 0;
#X connect 0 0 4 0;
#X connect 1 0 4 0;
#X connect 3 0 4 0;
#X connect 4 0 24 0;
#X connect 4 0 56 1;
#X connect 4 1 2 0;
#X connect 5 0 19 0;
#X connect 5 0 71 0;
#X connect 6 0 18 0;
#X connect 6 0 71 1;
#X connect 7 0 8 1;
#X connect 8 0 9 0;
#X connect 9 0 10 0;
#X connect 10 0 4 0;
#X connect 11 0 7 0;
#X connect 12 0 7 1;
#X connect 13 0 4 0;
#X connect 14 0 4 0;
#X connect 16 0 4 0;
#X connect 17 0 16 0;
#X connect 18 0 46 0;
#X connect 19 0 45 0;
#X connect 20 0 35 0;
#X connect 20 0 8 0;
#X connect 20 1 17 0;
#X connect 20 1 34 0;
#X connect 21 0 20 0;
#X connect 24 0 51 0;
#X connect 24 1 58 0;
#X connect 29 0 67 0;
#X connect 29 0 72 0;
#X connect 30 0 29 0;
#X connect 31 0 29 0;
#X connect 32 0 33 0;
#X connect 33 0 29 0;
#X connect 36 0 21 0;
#X connect 43 0 20 1;
#X connect 44 0 43 0;
#X connect 45 0 11 0;
#X connect 46 0 12 0;
#X connect 47 0 71 0;
#X connect 48 0 71 1;
#X connect 49 0 70 1;
#X connect 51 0 53 0;
#X connect 52 0 47 0;
#X connect 53 0 54 0;
#X connect 54 0 55 0;
#X connect 55 0 52 0;
#X connect 56 0 22 0;
#X connect 57 0 56 0;
#X connect 58 0 60 0;
#X connect 59 0 48 0;
#X connect 60 0 61 0;
#X connect 61 0 62 0;
#X connect 62 0 59 0;
#X connect 63 0 4 0;
#X connect 64 0 4 0;
#X connect 65 0 68 0;
#X connect 68 0 69 0;
#X connect 69 0 13 0;
#X connect 69 1 14 0;
#X connect 70 0 15 0;
#X connect 70 0 15 1;
#X connect 71 0 70 0;
#X connect 72 0 73 0;
#X connect 72 1 74 0;
#X connect 72 2 75 0;
#X connect 72 3 76 0;
#X connect 72 4 77 0;
#X connect 72 5 78 0;
#X connect 73 0 79 0;
#X connect 74 0 79 1;
#X connect 75 0 79 2;
#X connect 79 0 43 1;
