#N canvas 252 118 1055 559 12;
#X obj 239 369 hsl 128 15 0 1 0 0 empty empty empty -2 -8 0 10 -262144
-1 -1 757 1;
#X obj 381 370 hsl 128 15 0 1 0 0 empty empty empty -2 -8 0 10 -262144
-1 -1 658 1;
#X obj 233 493 dac~;
#X text 387 401 granular synthesis example;
#X text 388 422 double click to see inside;
#X text 236 348 play speed;
#X text 376 348 playhead start position;
#X obj 403 85 serial_communication_example;
#X msg 469 35 close;
#X msg 469 60 devices;
#X obj 403 14 hradio 15 1 0 8 empty empty port 0 -8 0 10 -262144 -1
-1 3;
#X msg 403 36 open \$1;
#X obj 292 449 hsl 128 15 0 1 0 0 empty empty empty -2 -8 0 10 -262144
-1 -1 4600 1;
#X text 425 449 volume;
#X obj 384 66 bng 15 250 50 0 empty empty empty 17 7 0 10 -262144 -1
-1;
#X obj 235 450 *~ 0;
#X obj 235 398 granular/granular, f 20;
#X floatatom 403 144 5 0 0 0 - - -;
#X floatatom 445 144 5 0 0 0 - - -;
#X floatatom 486 144 5 0 0 0 - - -;
#X floatatom 528 144 5 0 0 0 - - -;
#X obj 403 111 unpack 0 0 0 0 0 0, f 30;
#X floatatom 568 144 5 0 0 0 - - -;
#X floatatom 610 144 5 0 0 0 - - -;
#X obj 153 212 scale 0 1023 0 1;
#X floatatom 170 185 5 0 0 0 min - -;
#X floatatom 236 186 5 0 0 0 max - -;
#X obj 153 236 max 0;
#X floatatom 153 280 5 0 0 0 - - -;
#X obj 153 257 min 1;
#X obj 289 213 scale 0 1023 0 1;
#X floatatom 306 186 5 0 0 0 min - -;
#X floatatom 372 187 5 0 0 0 max - -;
#X obj 289 237 max 0;
#X floatatom 289 281 5 0 0 0 - - -;
#X obj 289 258 min 1;
#X obj 423 211 scale 0 1023 0 1;
#X floatatom 440 184 5 0 0 0 min - -;
#X floatatom 506 185 5 0 0 0 max - -;
#X obj 423 235 max 0;
#X floatatom 423 279 5 0 0 0 - - -;
#X obj 423 256 min 1;
#X obj 559 210 scale 0 1023 0 1;
#X floatatom 576 183 5 0 0 0 min - -;
#X floatatom 642 184 5 0 0 0 max - -;
#X obj 559 234 max 0;
#X floatatom 559 278 5 0 0 0 - - -;
#X obj 559 255 min 1;
#X obj 694 209 scale 0 1023 0 1;
#X floatatom 711 182 5 0 0 0 min - -;
#X floatatom 777 183 5 0 0 0 max - -;
#X obj 694 233 max 0;
#X floatatom 694 277 5 0 0 0 - - -;
#X obj 694 254 min 1;
#X obj 830 209 scale 0 1023 0 1;
#X floatatom 847 182 5 0 0 0 min - -;
#X floatatom 913 183 5 0 0 0 max - -;
#X obj 830 233 max 0;
#X floatatom 830 277 5 0 0 0 - - -;
#X obj 830 254 min 1;
#X connect 0 0 16 0;
#X connect 1 0 16 1;
#X connect 7 0 14 0;
#X connect 7 0 21 0;
#X connect 8 0 7 0;
#X connect 9 0 7 0;
#X connect 10 0 11 0;
#X connect 11 0 7 0;
#X connect 12 0 15 1;
#X connect 15 0 2 0;
#X connect 15 0 2 1;
#X connect 16 0 15 0;
#X connect 17 0 24 0;
#X connect 18 0 30 0;
#X connect 19 0 36 0;
#X connect 20 0 42 0;
#X connect 21 0 17 0;
#X connect 21 1 18 0;
#X connect 21 2 19 0;
#X connect 21 3 20 0;
#X connect 21 4 22 0;
#X connect 21 5 23 0;
#X connect 22 0 48 0;
#X connect 23 0 54 0;
#X connect 24 0 27 0;
#X connect 25 0 24 1;
#X connect 26 0 24 2;
#X connect 27 0 29 0;
#X connect 29 0 28 0;
#X connect 30 0 33 0;
#X connect 31 0 30 1;
#X connect 32 0 30 2;
#X connect 33 0 35 0;
#X connect 35 0 34 0;
#X connect 36 0 39 0;
#X connect 37 0 36 1;
#X connect 38 0 36 2;
#X connect 39 0 41 0;
#X connect 41 0 40 0;
#X connect 42 0 45 0;
#X connect 43 0 42 1;
#X connect 44 0 42 2;
#X connect 45 0 47 0;
#X connect 47 0 46 0;
#X connect 48 0 51 0;
#X connect 49 0 48 1;
#X connect 50 0 48 2;
#X connect 51 0 53 0;
#X connect 53 0 52 0;
#X connect 54 0 57 0;
#X connect 55 0 54 1;
#X connect 56 0 54 2;
#X connect 57 0 59 0;
#X connect 59 0 58 0;
