#N canvas 109 23 1264 855 12;
#X obj 282 517 hsl 128 15 0 1 0 0 empty empty empty -2 -8 0 10 -262144
-1 -1 5487 1;
#X obj 424 518 hsl 128 15 0 1 0 0 empty empty empty -2 -8 0 10 -262144
-1 -1 3265 1;
#X obj 276 614 dac~;
#X obj 403 85 serial_communication_example;
#X msg 469 35 close;
#X msg 469 60 devices;
#X obj 403 14 hradio 15 1 0 8 empty empty port 0 -8 0 10 -262144 -1
-1 3;
#X msg 403 36 open \$1;
#X obj 565 518 hsl 128 15 0 1 0 0 empty empty empty -2 -8 0 10 -262144
-1 -1 5611 1;
#X obj 707 519 hsl 128 15 0 1 0 0 empty empty empty -2 -8 0 10 -262144
-1 -1 5785 1;
#X text 600 494 cutoff;
#X text 292 493 offset;
#X text 444 492 frequency;
#X text 748 495 resonance;
#X obj 375 77 bng 15 250 50 0 empty empty empty 17 7 0 10 -262144 -1
-1;
#X obj 336 586 hsl 128 15 0 1 0 0 empty empty empty -2 -8 0 10 -262144
-1 -1 0 1;
#X text 469 586 volume;
#X obj 277 585 *~ 0.8;
#X obj 278 546 analogStyle/analogStyle, f 29;
#X floatatom 403 144 5 0 0 0 - - -;
#X floatatom 445 144 5 0 0 0 - - -;
#X floatatom 486 144 5 0 0 0 - - -;
#X floatatom 528 144 5 0 0 0 - - -;
#X obj 403 111 unpack 0 0 0 0 0 0, f 30;
#X floatatom 568 144 5 0 0 0 - - -;
#X floatatom 610 144 5 0 0 0 - - -;
#X obj 153 212 scale 0 1023 0 1;
#X floatatom 170 185 5 0 0 0 min - -;
#X floatatom 236 186 5 0 0 0 max - -;
#X obj 153 236 max 0;
#X floatatom 153 280 5 0 0 0 - - -;
#X obj 153 257 min 1;
#X obj 289 213 scale 0 1023 0 1;
#X floatatom 306 186 5 0 0 0 min - -;
#X floatatom 372 187 5 0 0 0 max - -;
#X obj 289 237 max 0;
#X floatatom 289 281 5 0 0 0 - - -;
#X obj 289 258 min 1;
#X obj 423 211 scale 0 1023 0 1;
#X floatatom 440 184 5 0 0 0 min - -;
#X floatatom 506 185 5 0 0 0 max - -;
#X obj 423 235 max 0;
#X floatatom 423 279 5 0 0 0 - - -;
#X obj 423 256 min 1;
#X obj 559 210 scale 0 1023 0 1;
#X floatatom 576 183 5 0 0 0 min - -;
#X floatatom 642 184 5 0 0 0 max - -;
#X obj 559 234 max 0;
#X floatatom 559 278 5 0 0 0 - - -;
#X obj 559 255 min 1;
#X obj 694 209 scale 0 1023 0 1;
#X floatatom 711 182 5 0 0 0 min - -;
#X floatatom 777 183 5 0 0 0 max - -;
#X obj 694 233 max 0;
#X floatatom 694 277 5 0 0 0 - - -;
#X obj 694 254 min 1;
#X obj 830 209 scale 0 1023 0 1;
#X floatatom 847 182 5 0 0 0 min - -;
#X floatatom 913 183 5 0 0 0 max - -;
#X obj 830 233 max 0;
#X floatatom 830 277 5 0 0 0 - - -;
#X obj 830 254 min 1;
#X connect 0 0 18 0;
#X connect 1 0 18 1;
#X connect 3 0 14 0;
#X connect 3 0 23 0;
#X connect 4 0 3 0;
#X connect 5 0 3 0;
#X connect 6 0 7 0;
#X connect 7 0 3 0;
#X connect 8 0 18 2;
#X connect 9 0 18 3;
#X connect 15 0 17 1;
#X connect 17 0 2 0;
#X connect 17 0 2 1;
#X connect 18 0 17 0;
#X connect 19 0 26 0;
#X connect 20 0 32 0;
#X connect 21 0 38 0;
#X connect 22 0 44 0;
#X connect 23 0 19 0;
#X connect 23 1 20 0;
#X connect 23 2 21 0;
#X connect 23 3 22 0;
#X connect 23 4 24 0;
#X connect 23 5 25 0;
#X connect 24 0 50 0;
#X connect 25 0 56 0;
#X connect 26 0 29 0;
#X connect 27 0 26 1;
#X connect 28 0 26 2;
#X connect 29 0 31 0;
#X connect 31 0 30 0;
#X connect 32 0 35 0;
#X connect 33 0 32 1;
#X connect 34 0 32 2;
#X connect 35 0 37 0;
#X connect 37 0 36 0;
#X connect 38 0 41 0;
#X connect 39 0 38 1;
#X connect 40 0 38 2;
#X connect 41 0 43 0;
#X connect 43 0 42 0;
#X connect 44 0 47 0;
#X connect 45 0 44 1;
#X connect 46 0 44 2;
#X connect 47 0 49 0;
#X connect 49 0 48 0;
#X connect 50 0 53 0;
#X connect 51 0 50 1;
#X connect 52 0 50 2;
#X connect 53 0 55 0;
#X connect 55 0 54 0;
#X connect 56 0 59 0;
#X connect 57 0 56 1;
#X connect 58 0 56 2;
#X connect 59 0 61 0;
#X connect 61 0 60 0;
