#N canvas 0 23 1176 567 12;
#X obj 68 449 soundfiler;
#X floatatom 68 473 10 0 0 0 - - -;
#X text 66 403 open sound file;
#X obj 67 379 loadbang;
#X msg 68 425 read -resize sounds/drump01.wav sample1;
#X obj 67 497 array define sample1;
#X obj 363 447 soundfiler;
#X floatatom 363 471 10 0 0 0 - - -;
#X text 361 401 open sound file;
#X obj 362 495 array define sample2;
#X msg 363 423 read -resize sounds/drump02.wav sample2;
#X obj 655 443 soundfiler;
#X floatatom 655 467 10 0 0 0 - - -;
#X text 653 397 open sound file;
#X obj 654 491 array define sample3;
#X msg 655 419 read -resize sounds/drump04.wav sample3;
#X obj 213 237 tabplay~ sample1;
#X obj 230 209 bng 15 250 50 0 empty empty empty 17 7 0 10 -262144
-1 -1;
#X obj 345 238 tabplay~ sample2;
#X obj 475 238 tabplay~ sample3;
#X obj 360 211 bng 15 250 50 0 empty empty empty 17 7 0 10 -262144
-1 -1;
#X obj 489 205 bng 15 250 50 0 empty empty empty 17 7 0 10 -262144
-1 -1;
#X obj 346 279 outlet~;
#X obj 215 119 inlet;
#X obj 347 115 inlet;
#X obj 487 112 inlet;
#X connect 0 0 1 0;
#X connect 3 0 4 0;
#X connect 3 0 10 0;
#X connect 3 0 15 0;
#X connect 4 0 0 0;
#X connect 6 0 7 0;
#X connect 10 0 6 0;
#X connect 11 0 12 0;
#X connect 15 0 11 0;
#X connect 16 0 22 0;
#X connect 17 0 16 0;
#X connect 18 0 22 0;
#X connect 19 0 22 0;
#X connect 20 0 18 0;
#X connect 21 0 19 0;
#X connect 23 0 17 0;
#X connect 24 0 20 0;
#X connect 25 0 21 0;
