#N canvas 214 23 1010 708 10;
#N canvas 0 50 450 250 (subpatch) 0;
#X array param1 24 float 3;
#A 0 0.143555 0.72 0.54 0.72 0.72 0.25 0.61 0.58 0.55 0.5 0.36 0.22
0.49 0.5 0.5 0.5 0.5 0.5 0.72 0.85 0.15 0.15 0.78 0.69;
#X coords 0 1 24 0 100 100 1 0 0;
#X restore 725 60 graph;
#N canvas 4 50 450 250 (subpatch) 0;
#X array param2 24 float 3;
#A 0 0.3 0.34 0.52 0.8 0.849999 0.869999 0.869999 0.869999 0.839999
0.8 0.75 0.68 0.63 0.3 0.29 0.26 0.255 0.25 0.25 0.26 0.28 0.36 0.72
0.72;
#X coords 0 1 24 0 100 100 1 0 0;
#X restore 726 182 graph;
#N canvas 0 50 450 250 (subpatch) 0;
#X array param3 24 float 3;
#A 0 0 0 0 0.0488281 0.0488281 0.0488281 0.0488281 0.0488281 0.0488281
0.0488281 0 0.696289 0 0.314453 0 0 0 0 0 0.999023 0.999023 0.999023
0.405273 0.405273;
#X coords 0 1 24 0 100 100 1 0 0;
#X restore 726 307 graph;
#N canvas 0 50 450 250 (subpatch) 0;
#X array param4 24 float 3;
#A 0 0.999023 0.131836 0.0693359 0.100586 0.56 0.56 0.55 0.530001 0.999023
0.999023 0.999023 0.0126953 0.0966797 0.999023 0.999023 0.129883 0.129883
0.129883 0.129883 0.42 0.999023 0.999023 0.999023 0.999023;
#X coords 0 1 24 0 100 100 1 0 0;
#X restore 727 432 graph;
#X obj 48 554 catch~ voice-out;
#N canvas 5 50 825 527 reverb 0;
#X msg 231 207 wet \$1;
#X msg 327 204 dry \$1;
#X obj 181 321 freeverb~;
#X obj 231 124 r rwet;
#X obj 327 123 r rdry;
#X msg 231 151 \$1 40;
#X msg 327 149 \$1 40;
#X obj 327 177 line 0 1;
#X obj 231 179 line 0 1;
#X obj 399 206 - 1;
#X obj 399 233 abs;
#X obj 399 260 s rdry;
#X obj 442 192 s rwet;
#X obj 442 160 * 0.5;
#X obj 419 113 r eparam4;
#X obj 177 109 *~ 0.5;
#X obj 62 95 r eparam3;
#X floatatom 73 241 5 0 0 0 - - -;
#X msg 82 187 roomsize \$1;
#X obj 75 158 * 0.8;
#X obj 189 44 inlet~;
#X obj 164 387 outlet~;
#X obj 245 389 outlet~;
#X connect 0 0 2 0;
#X connect 1 0 2 0;
#X connect 2 0 21 0;
#X connect 2 1 22 0;
#X connect 3 0 5 0;
#X connect 4 0 6 0;
#X connect 5 0 8 0;
#X connect 6 0 7 0;
#X connect 7 0 1 0;
#X connect 8 0 0 0;
#X connect 9 0 10 0;
#X connect 10 0 11 0;
#X connect 13 0 12 0;
#X connect 13 0 9 0;
#X connect 14 0 13 0;
#X connect 15 0 2 1;
#X connect 15 0 2 0;
#X connect 16 0 19 0;
#X connect 18 0 2 0;
#X connect 19 0 18 0;
#X connect 19 0 17 0;
#X connect 20 0 15 0;
#X restore 48 605 pd reverb;
#X obj 182 644 s~ lfo;
#X obj 181 577 osc~;
#X obj 182 613 *~;
#X obj 181 480 r eparam1;
#X obj 181 504 t f f;
#X obj 181 526 *;
#X obj 181 551 * 1000;
#X obj 240 545 r eparam2;
#X obj 240 571 * 1000;
#X text 254 518 HFO;
#N canvas 12 232 1428 646 param-editor 0;
#X obj 153 113 r edit-note;
#X obj 37 39 r knob1;
#X obj 51 116 spigot 0;
#X floatatom 52 139 5 0 0 0 - - -;
#X obj 53 167 tabwrite param1;
#X obj 151 137 - 60;
#X obj 357 112 r edit-note;
#X obj 255 115 spigot 0;
#X floatatom 256 138 5 0 0 0 - - -;
#X obj 355 136 - 60;
#X obj 145 306 r edit-note;
#X obj 43 309 spigot 0;
#X floatatom 44 332 5 0 0 0 - - -;
#X obj 143 330 - 60;
#X obj 349 305 r edit-note;
#X obj 247 308 spigot 0;
#X floatatom 248 331 5 0 0 0 - - -;
#X obj 347 329 - 60;
#X obj 257 166 tabwrite param2;
#X obj 45 360 tabwrite param3;
#X obj 249 355 tabwrite param4;
#X obj 50 88 f;
#X obj 254 85 f;
#X obj 240 58 r knob2;
#X obj 47 276 f;
#X obj 248 274 f;
#X obj 33 249 r knob3;
#X obj 234 247 r knob4;
#X obj 810 33 r notesRaw;
#X obj 994 219 stripnote;
#X obj 643 248 s edit-note;
#N canvas 4 50 450 300 lock-knobs 0;
#X obj 160 78 s knob1Override;
#X obj 171 101 s knob2Override;
#X obj 188 124 s knob3Override;
#X obj 201 148 s knob4Override;
#X obj 234 17 inlet;
#X connect 4 0 0 0;
#X connect 4 0 1 0;
#X connect 4 0 2 0;
#X connect 4 0 3 0;
#X restore 1052 279 pd lock-knobs;
#X obj 960 391 bag;
#X msg 960 357 flush;
#X text 513 97 <-- output them;
#X msg 900 193 clear;
#X obj 960 329 bang;
#X obj 867 536 tabwrite param1;
#X obj 987 283 t f b f;
#X obj 868 505 tabread param1;
#X obj 986 536 tabwrite param2;
#X obj 1101 533 tabwrite param3;
#X obj 1215 533 tabwrite param4;
#X obj 1220 502 tabread param4;
#X obj 1098 506 tabread param3;
#X obj 985 507 tabread param2;
#X obj 1118 409 - 60;
#X obj 960 416 - 60;
#X text 1001 148 copy params from one key to another;
#X obj 670 208 stripnote;
#X obj 807 70 t a a;
#X obj 920 112 spigot 0;
#X obj 94 40 r key-edit-state;
#X obj 91 242 r key-edit-state;
#X obj 304 237 r key-edit-state;
#X obj 298 37 r key-edit-state;
#X obj 963 34 r key-edit-state;
#X obj 839 145 t a a b a;
#X obj 786 273 s key-just-copied;
#X connect 0 0 5 0;
#X connect 1 0 21 0;
#X connect 2 0 3 0;
#X connect 3 0 4 0;
#X connect 5 0 4 1;
#X connect 6 0 9 0;
#X connect 7 0 8 0;
#X connect 8 0 18 0;
#X connect 9 0 18 1;
#X connect 10 0 13 0;
#X connect 11 0 12 0;
#X connect 12 0 19 0;
#X connect 13 0 19 1;
#X connect 14 0 17 0;
#X connect 15 0 16 0;
#X connect 16 0 20 0;
#X connect 17 0 20 1;
#X connect 21 0 2 0;
#X connect 22 0 7 0;
#X connect 23 0 22 0;
#X connect 24 0 11 0;
#X connect 25 0 15 0;
#X connect 26 0 24 0;
#X connect 27 0 25 0;
#X connect 28 0 50 0;
#X connect 29 0 38 0;
#X connect 29 1 31 0;
#X connect 32 0 47 0;
#X connect 33 0 32 0;
#X connect 35 0 32 0;
#X connect 36 0 33 0;
#X connect 38 1 36 0;
#X connect 38 2 46 0;
#X connect 39 0 37 0;
#X connect 43 0 42 0;
#X connect 44 0 41 0;
#X connect 45 0 40 0;
#X connect 46 0 42 1;
#X connect 46 0 41 1;
#X connect 46 0 40 1;
#X connect 46 0 37 1;
#X connect 47 0 39 0;
#X connect 47 0 45 0;
#X connect 47 0 44 0;
#X connect 47 0 43 0;
#X connect 49 0 30 0;
#X connect 50 0 49 0;
#X connect 50 1 51 0;
#X connect 51 0 57 0;
#X connect 52 0 2 1;
#X connect 53 0 11 1;
#X connect 54 0 15 1;
#X connect 55 0 7 1;
#X connect 56 0 51 1;
#X connect 57 0 58 0;
#X connect 57 1 32 0;
#X connect 57 2 35 0;
#X connect 57 3 29 0;
#X restore 874 124 pd param-editor;
#N canvas 51 527 1160 286 knob-to-fx 0;
#X obj 68 62 r knob1;
#X obj 72 115 spigot 1;
#X obj 124 90 ==;
#X obj 71 147 s eparam1;
#X obj 344 123 spigot 1;
#X obj 396 98 ==;
#X obj 570 114 spigot 1;
#X obj 622 89 ==;
#X obj 782 118 spigot 1;
#X obj 834 93 ==;
#X obj 340 70 r knob2;
#X obj 566 61 r knob3;
#X obj 778 65 r knob4;
#X obj 343 155 s eparam2;
#X obj 569 146 s eparam3;
#X obj 781 150 s eparam4;
#X text 261 17 if not in key edit state \, send effect params;
#X obj 123 46 r key-edit-state;
#X obj 395 48 r key-edit-state;
#X obj 626 45 r key-edit-state;
#X obj 837 60 r key-edit-state;
#X connect 0 0 1 0;
#X connect 1 0 3 0;
#X connect 2 0 1 1;
#X connect 4 0 13 0;
#X connect 5 0 4 1;
#X connect 6 0 14 0;
#X connect 7 0 6 1;
#X connect 8 0 15 0;
#X connect 9 0 8 1;
#X connect 10 0 4 0;
#X connect 11 0 6 0;
#X connect 12 0 8 0;
#X connect 17 0 2 0;
#X connect 18 0 5 0;
#X connect 19 0 7 0;
#X connect 20 0 9 0;
#X restore 874 150 pd knob-to-fx;
#X obj 873 178 sequencer3;
#X obj 48 581 *~ 0.25;
#X obj 357 271 voice 12;
#X obj 202 274 voice 0;
#X obj 202 297 voice 1;
#X obj 202 320 voice 2;
#X obj 202 343 voice 3;
#X obj 202 366 voice 4;
#X obj 203 389 voice 5;
#X obj 281 272 voice 6;
#X obj 281 295 voice 7;
#X obj 281 318 voice 8;
#X obj 281 341 voice 9;
#X obj 281 364 voice 10;
#X obj 282 387 voice 11;
#X obj 357 295 voice 13;
#X obj 357 318 voice 14;
#X obj 357 341 voice 15;
#X obj 357 364 voice 16;
#X obj 358 387 voice 17;
#X obj 436 270 voice 18;
#X obj 436 293 voice 19;
#X obj 436 316 voice 20;
#X obj 436 339 voice 21;
#X obj 436 362 voice 22;
#X obj 437 385 voice 23;
#N canvas 85 161 951 432 save-params 0;
#X obj 122 42 r key-edit-state;
#X obj 122 105 sel 0;
#X obj 122 74 change;
#X obj 471 42 loadbang;
#X msg 455 92 \; param1 read param1.txt \; param2 read param2.txt \;
param3 read param3.txt \; param4 read param4.txt \;;
#X msg 123 140 \; param1 write param1.txt \; param2 write param2.txt
\; param3 write param3.txt \; param4 write param4.txt \;;
#X connect 0 0 2 0;
#X connect 1 0 5 0;
#X connect 2 0 1 0;
#X connect 3 0 4 0;
#X restore 873 232 pd save-params;
#X obj 240 199 s notes;
#X msg 238 127 64 100;
#X obj 520 101 s knob4;
#X obj 362 105 s knob3;
#X msg 305 179 74 100;
#X msg 274 155 68 100;
#X obj 362 67 hsl 128 15 0 1 0 0 empty empty empty -2 -8 0 10 -262144
-1 -1 3300 1;
#X obj 522 68 hsl 128 15 0 1 0 0 empty empty empty -2 -8 0 10 -262144
-1 -1 12700 1;
#X msg 177 170 61 100;
#X obj 47 196 s seq-start;
#X obj 47 172 bng 15 250 50 0 empty empty empty 17 7 0 10 -262144 -1
-1;
#X obj 87 225 bng 15 250 50 0 empty empty empty 17 7 0 10 -262144 -1
-1;
#X obj 88 249 s seq-stop;
#X msg 180 133 62 100;
#X obj 71 113 tgl 15 0 empty empty empty 17 7 0 10 -262144 -1 -1 0
1;
#X obj 47 144 sel 1;
#X obj 84 143 sel 0;
#X obj 662 53 loadbang;
#X msg 358 178 38 100;
#X text 388 633 based on Drummy patch from Organelle site;
#X text 390 651 https://www.critterandguitari.com/tags/drum-machine
;
#X msg 197 106 \$1 100;
#X obj 198 68 hsl 128 15 27 87 0 0 empty empty empty -2 -8 0 10 -262144
-1 -1 0 1;
#X obj 195 86 i;
#X obj 39 16 inlet;
#X text 77 17 toggle 1/0;
#X obj 178 12 inlet;
#X text 219 12 midi note to trigger drum;
#X text 217 28 27-87;
#X obj 398 7 inlet;
#X obj 574 6 inlet;
#X text 441 8 resonance;
#X text 616 7 wet/dry;
#X obj 41 653 outlet~;
#X obj 95 653 outlet~;
#X connect 4 0 19 0;
#X connect 5 0 78 0;
#X connect 5 1 79 0;
#X connect 7 0 8 0;
#X connect 8 0 6 0;
#X connect 9 0 10 0;
#X connect 10 0 11 0;
#X connect 10 1 11 1;
#X connect 11 0 12 0;
#X connect 12 0 7 0;
#X connect 13 0 14 0;
#X connect 14 0 8 1;
#X connect 19 0 5 0;
#X connect 46 0 45 0;
#X connect 49 0 45 0;
#X connect 50 0 45 0;
#X connect 51 0 48 0;
#X connect 52 0 47 0;
#X connect 53 0 45 0;
#X connect 55 0 54 0;
#X connect 56 0 57 0;
#X connect 58 0 45 0;
#X connect 59 0 60 0;
#X connect 59 0 61 0;
#X connect 60 0 55 0;
#X connect 61 0 56 0;
#X connect 62 0 51 0;
#X connect 62 0 52 0;
#X connect 63 0 45 0;
#X connect 66 0 45 0;
#X connect 67 0 68 0;
#X connect 68 0 66 0;
#X connect 69 0 59 0;
#X connect 71 0 67 0;
#X connect 74 0 51 0;
#X connect 75 0 52 0;
